<svg width="332" height="105" viewBox="0 0 332 105" fill="none" xmlns="http://www.w3.org/2000/svg">
<path d="M75.4844 36.8281V26.4922H117.566V36.8281H103.293V80H89.793V36.8281H75.4844ZM168.93 80H154.164C153.883 79.6484 153.625 79.2617 153.391 78.8398C153.18 78.3945 152.793 77.5156 152.23 76.2031C151.574 74.7031 150.859 72.7812 150.086 70.4375C149.359 68.3047 148.738 66.6289 148.223 65.4102C147.707 64.1914 147.086 63.1602 146.359 62.3164C145.633 61.4727 144.789 61.0156 143.828 60.9453C142.492 61.0391 140.559 61.0859 138.027 61.0859V80H124.668V26.4922H129.273C130.117 26.4922 131.875 26.4219 134.547 26.2812C134.922 26.2578 136.164 26.1992 138.273 26.1055C140.383 25.9883 142.75 25.9297 145.375 25.9297C148.891 25.9297 152.137 26.4453 155.113 27.4766C158.09 28.5078 160.527 30.2891 162.426 32.8203C164.348 35.3281 165.309 38.6914 165.309 42.9102C165.309 50.5273 162.484 55.6602 156.836 58.3086C158.055 59.2695 159.109 60.5586 160 62.1758C160.914 63.793 162.004 66.043 163.27 68.9258C163.996 70.6133 164.605 71.9961 165.098 73.0742C165.613 74.1289 166.152 75.1484 166.715 76.1328L168.93 80ZM138.027 51.8047C138.707 51.8984 139.738 51.9688 141.121 52.0156C142.527 52.0625 143.688 52.0742 144.602 52.0508C147.203 52.0508 149.16 51.2305 150.473 49.5898C151.785 47.9258 152.441 45.7812 152.441 43.1562C152.441 37.9766 149.535 35.3867 143.723 35.3867C141.449 35.3867 139.551 35.5977 138.027 36.0195V51.8047ZM210.168 26.4922V36.4766H189.602V47.7969H205.457V57.5352H189.602V69.7695H212.277V80H176.348V26.4922H210.168ZM241.387 26.4922L247.891 53.9492L250.316 66.4297L252.25 53.9492L258.016 26.4922H275.559L282.379 80H269.512L267.051 51.5586L266.242 36.1602L262.902 51.9805L255.73 80.3164H243.883L236.078 51.9805L232.562 36.1602L231.648 51.5586L229.539 80L217.164 80.0352L223.352 26.4922H241.387ZM324.496 26.4922V36.4766H303.93V47.7969H319.785V57.5352H303.93V69.7695H326.605V80H290.676V26.4922H324.496Z" fill="white"/>
<path d="M39.8912 3H7L36.9735 42.7333L7 83.8L45.7268 72.0667L53.1538 61.6667L107 103L64.8249 46.4667L97.9814 3H66.6817L53.1538 21.4L39.8912 3Z" fill="#F3A60C" stroke="#F3A60C" stroke-width="5"/>
</svg>
